<svg version="1.0" xmlns="http://www.w3.org/2000/svg" width="1706.667" height="1080" viewBox="0 0 1280 810"><path d="M289 5.8c-8.1 8.1-44.8 40.8-82 73.1-33.7 29.3-40.2 35.7-60.2 60.2-25.5 31.3-42.4 55.3-50.8 71.9-13.1 26.2-37.3 80.4-42.8 96.1-2.9 8.3-9.8 37-22.7 94.9-6.1 27.2-6.9 32.1-10 62.5l-3.4 32.9 9.5 17.7C39 538.3 48.1 557.4 52 568.5c3 8.4 3.2 9.6 2.7 19-.3 5.5-1.7 14.7-3 20.5-5 21.3-4.2 19.8-21.1 39.3L15.3 665l-5.1 23.3c-7 31.9-9.5 47.4-9.6 59.3-.1 9.6 0 10.2 2.7 13.8 4.1 5.3 14.2 13.4 28.7 23.1 16.4 10.9 18.9 12.1 29.1 13.9 22 3.8 72.5 4.6 86.1 1.3 8.9-2.2 17.6-8.4 26.1-18.9 3.5-4.3 3.5-4.4 8.6-35.3 8.6-51.2 8.6-49.2.1-83.5-8.4-34-8.7-46-1.6-61.9 2.1-4.4 3.1-7.8 2.5-8.2-1.3-.7 2.5-11.3 10.6-29.5 9.2-20.7 15.3-29.4 33.5-47.9l9.8-10 33.9-18 33.8-18 14.8-.3 14.9-.4 2.9-4.8 2.9-4.7 16.2-.7c26.8-1.1 42.1-1.5 87.3-2.6 23.7-.6 60.6-1.5 82-2 21.5-.5 57.5-1.4 80-2 22.6-.6 59.1-1.5 81.3-2.1 22.1-.5 40.8-.7 41.5-.2.6.4 4.2 2.9 8 5.5l6.7 4.8 36.8 2c20.2 1.2 59.7 3.3 87.7 4.8l51 2.8 43-2.7c23.7-1.5 61.5-3.9 84-5.4 43.2-2.8 52.5-2.9 109.5-1.9l35.5.7 11.5 5.4 11.5 5.5 5.8-1.2c9-1.7 22.4-6.6 28.4-10.2 3.4-2 7.2-5.6 10-9.3 7.9-10.5 17.1-31.9 20.3-47.5 1.8-8.8 2.4-31.4 1.1-42.8-1.6-13.7-3.4-19.1-8.2-25.2-4.7-6-18.4-17.1-28.9-23.4l-7.5-4.5-15-.9c-13.2-.7-15.6-.6-19.5.9-3.2 1.3-12.8 2.4-34 4-28.7 2.1-32.3 2.2-134 1.5l-104.5-.7L885 316c-116.2 13.9-142.1 17-142.9 17-.4 0-2.7 4.3-5.2 9.5-4.1 8.7-5.9 11.3-5.9 8.2 0-.9-2.3-1.1-8.7-1-4.9.1-39.4.7-76.8 1.3-37.4.6-91.2 1.5-119.5 2-28.3.5-82.5 1.5-120.5 2.1l-69 1.2-8.5-4.6-8.5-4.5-17.1.5-17.1.6-12.9-4.3c-7.1-2.4-17.7-6.2-23.5-8.5-9.3-3.7-10.7-4-11.6-2.6-.8 1.3-1.3 1.1-2.9-1.4-3.6-5.6-2.2-35.7 2.6-55.7 2.3-9.3 5.9-18 18.5-44.8 21.1-45 49.4-79.8 133.1-164l29.3-29.5 2.2-8.3c1.2-4.5 2-8.4 1.8-8.5-.8-.7-44.4-11.9-46.4-12-1.1-.1-14.6 8.9-30 19.9-31.3 22.3-31.7 22.6-29.4 19.8.9-1 3.8-5.7 6.4-10.4 2.7-4.7 8.1-13.8 12.2-20.3 4.1-6.6 7.2-12.2 6.8-12.5-.6-.6-42.6-5.2-45.5-5-.8.1-4 2.6-7 5.6z"/></svg>